<svg xmlns="http://www.w3.org/2000/svg" xmlns:xlink="http://www.w3.org/1999/xlink" viewBox="0 0 498.02 332.93"><defs><style>.cls-3,.cls-5{fill:#fff;}.cls-4{fill:url(#Degradado_sin_nombre_37);}.cls-5{font-size:43.83px;font-family:Poppins-Medium, Poppins;font-weight:500;}</style><linearGradient id="Degradado_sin_nombre_37" x1="296.7" y1="321.73" x2="457.15" y2="321.73" gradientUnits="userSpaceOnUse"><stop offset="0" stop-color="#89c7f5"/><stop offset="0.49" stop-color="#4d9ce8"/><stop offset="0.99" stop-color="#1372db"/></linearGradient></defs><title>Logo</title><g class="cls-1"><g id="Capa_1" data-name="Capa 1"><circle class="cls-2" cx="365.81" cy="363.03" r="166.47" transform="translate(-276.53 168.44) rotate(-45)"/><rect class="cls-3" x="148.59" y="15.81" width="203.05" height="203.05" rx="6.25"/><path class="cls-4" d="M447.65,271.21c-15.56-21.31-50.84-22.68-70.73-2.31-19.88-20.37-55.16-19-70.73,2.31-10.87,14.89-11.93,34.44-5.58,51.28s19.44,31.17,34.74,42.55c12.79,9.51,27.14,16.19,41.17,23.82l.4.21.4-.21c14-7.63,28.38-14.31,41.17-23.82,15.31-11.38,28.4-25.7,34.75-42.55S458.53,286.1,447.65,271.21Zm-36.86,59.48H385.88V355.6H368V330.69H343.05V312.77H368V287.86h17.92v24.91h24.91Z" transform="translate(-126.98 -196.56)"/><text class="cls-5" transform="translate(165.95 288.17)">Mediapp</text></g></g></svg>